<?xml version="1.0" encoding="utf-8"?>
<!-- Generator: Adobe Illustrator 16.0.0, SVG Export Plug-In . SVG Version: 6.00 Build 0)  -->
<!DOCTYPE svg PUBLIC "-//W3C//DTD SVG 1.1//EN" "http://www.w3.org/Graphics/SVG/1.1/DTD/svg11.dtd">
<svg version="1.1" id="Layer_1" xmlns="http://www.w3.org/2000/svg" xmlns:xlink="http://www.w3.org/1999/xlink" x="0px" y="0px"
	 width="148px" height="49px" viewBox="0 0 148 49" enable-background="new 0 0 148 49" xml:space="preserve">
<g>
	<path fill="#FFFFFF" d="M70.274,8.152H57.022l-2.862,32.7h13.586c2.271,0,8.305,0,12.285-3.646
		c4.975-4.531,5.488-10.448,5.658-12.393c0.596-6.813-1.25-9.854-2.037-11.152C80.277,8.152,74.258,8.152,70.274,8.152z
		 M78.408,24.56c-0.96,10.963-5.902,10.963-11.139,10.963h-5.591l1.928-22.04h3.396c4.111,0,7.661,0,9.688,2.211
		C78.244,17.389,78.789,20.204,78.408,24.56z"/>
	<polygon fill="#FFFFFF" points="147.641,13.483 148.107,8.152 121.475,8.152 118.613,40.852 145.906,40.852 146.373,35.521 
		126.131,35.521 126.934,26.361 145.148,26.361 145.615,21.031 127.398,21.031 128.059,13.483 	"/>
	<path fill="#FFFFFF" d="M107.51,26.584l-0.068-0.037l0.023-0.268l0.098-0.01c1.332-0.127,2.713-0.468,4.105-1.004
		c3.475-1.269,5.828-4.331,6.148-7.996c0.254-2.914-0.93-6.837-5.106-8.298c-1.032-0.307-2.769-0.822-8.187-0.822H89.248
		l-2.859,32.7h7.051l2.396-27.369h5.824c4.957,0,5.85,0,7.179,0.751c1.527,0.866,1.732,2.365,1.639,3.471
		c-0.104,1.153-0.653,3.199-3.207,3.967c-1.315,0.419-4.396,0.419-6.646,0.419h-2.935l-0.44,5.027
		c4.009,0.118,4.681,1.149,8.257,6.614l4.602,7.119h8.482l-3.732-6.261C111.73,29.393,110.415,28.15,107.51,26.584z"/>
	<path fill="#FFFFFF" d="M11.323,25.111c10.616-0.43,19.091-3.228,24.864-6.521C33.963,8.825,28.598,1.697,23.981,0.33
		c-1.289,0.003-2.554,0.109-3.787,0.309C15.181,3.075,10.546,13.307,11.323,25.111z"/>
	<path fill="#FFFFFF" d="M11.628,28.021c0.396,2.789,1.112,5.619,2.203,8.418c9.201,0.254,17.158-1.364,23.133-3.899
		c0.35-3.078,0.342-6.082,0.046-8.945C30.129,26.652,20.731,28.389,11.628,28.021z"/>
	<path fill="#FFFFFF" d="M12.78,3.121C5.116,7.173-0.107,15.228-0.107,24.5c0,0.012,0,0.025,0,0.036
		c2.662,0.324,4.919,0.569,7.408,0.61C6.238,16.982,7.942,8.714,12.78,3.121z"/>
	<path fill="#FFFFFF" d="M39.758,16.241c2.266-1.732,3.79-3.475,4.524-4.996c-2.802-4.266-6.917-7.59-11.772-9.4
		C36.987,5.398,38.729,10.243,39.758,16.241z"/>
	<path fill="#FFFFFF" d="M7.736,27.732c-2.685-0.295-5.301-0.795-7.781-1.508c0.222,3.164,1.054,6.155,2.378,8.869
		c2.907,0.586,5.443,0.983,8.248,1.19C9.285,33.577,8.333,30.684,7.736,27.732z"/>
	<path fill="#FFFFFF" d="M38.523,36.691c-1.156,3.934-2.815,7.636-4.813,9.979c7.034-3.065,12.328-9.38,13.984-17.047
		C45.558,32.294,41.799,35.23,38.523,36.691z"/>
	<path fill="#FFFFFF" d="M40.332,21.898c0.112,3.145-0.094,6.31-0.579,9.321c4.038-2.139,7.168-4.506,8.483-7.063
		c-0.041-2.945-0.609-5.764-1.614-8.363C45.534,18.063,43.326,20.134,40.332,21.898z"/>
	<path fill="#FFFFFF" d="M12.377,39.57c-3.568-0.532-6.507-1.426-9.043-2.631c3.75,6.231,10.228,10.636,17.782,11.554
		C17.561,46.282,14.63,43.18,12.377,39.57z"/>
	<path fill="#FFFFFF" d="M15.397,39.921c1.545,2.993,3.557,5.899,6.144,8.619c0.831,0.086,1.673,0.13,2.526,0.13
		c2.89,0.001,5.663-0.507,8.234-1.438c1.604-3.069,2.998-6.498,3.748-9.553C29.785,39.872,22.235,40.531,15.397,39.921z"/>
</g>
</svg>
