<?xml version="1.0" encoding="UTF-8" standalone="no"?><!-- Generator: Adobe Illustrator 18.1.1, SVG Export Plug-In . SVG Version: 6.00 Build 0)  -->

<svg version="1.1" xmlns="http://www.w3.org/2000/svg" x="0px" y="0px"
   viewBox="0 0 190 190">
    <g id="g3037" transform="matrix(1.0047594,0,0,0.99947396,0,0)">
        <g id="g3039">
            <path d="M 17.9,150.1 C 8.1,140.6 0,117.1 0,97.7 0,91.2 0.7,82.4 1.5,78.1 h 27.1 c 19,0 34.3,15.8 34.3,34.8 v 2.9 c 0,19 -12.4,34.3 -34.5,34.3 H 17.9 z m 20.6,21.1 c -4.2,-2.3 -9.3,-6.7 -12.7,-10.3 h 7.4 c 24.9,0 42.3,-19.9 42.3,-44.8 v -2.9 c 0,-24.9 -19.9,-46 -44.9,-46 H 4.2 C 5.1,63.4 6.8,58.5 8.6,55.1 h 25 c 30.5,0 55,26.3 55,56.8 v 5.8 c 0,28.2 -20.3,53.5 -50.1,53.5 z M 14.6,44.5 c 2.8,-4.6 6.6,-9.6 8.6,-11.1 h 14.7 c 20.8,0 36.8,5.3 48,15.7 C 83,52.5 80.2,55.4 77.6,59.5 64.2,48.7 52.3,44.5 34.9,44.5 H 14.6 z M 33.3,23 C 49.4,8.7 72.2,0 94.6,0 104.3,0 113.8,1 122.8,3.8 101.3,6.3 84.7,14.9 71.5,27.7 65.8,25.6 53.9,23 43.1,23 h -9.8 z m 61.4,167.1 c -14.9,0 -29.9,-3.2 -42.7,-9.7 19.6,-3.4 34.9,-15.5 42.6,-34.4 7.6,18.9 22.8,31 42.5,34.4 -12.8,6.5 -27.5,9.7 -42.4,9.7 z M 94.4,40.5 C 91.3,37.9 87.1,34.9 83.6,32.9 96.7,20.7 111.5,13.4 138,11.6 c 5.8,2.5 13.3,7.3 17,10.7 h -9.6 c -18.8,0 -35.7,5.1 -51,18.2 z M 86.6,69 c 13.6,-22.9 35.7,-36.5 62.6,-36.5 h 15.4 c 3.2,2.7 7.7,8 10.1,11.9 H 153.6 C 125.1,44.4 104,60.4 94.5,82.8 93.1,79 90.7,74.8 86.6,69 z m 63.2,102.2 c -29.1,0 -49.4,-25.3 -49.4,-53.5 v -5.8 c 0,-30.5 24.6,-56.8 55.1,-56.8 h 25 c 2,3.4 3.5,8.1 4.4,12.1 h -26.4 c -25,0 -45,21.1 -45,46 v 2.9 c 0,24.9 17.6,44.8 42.5,44.8 h 7.4 c -3.5,3.5 -9.4,8 -13.6,10.3 z m 21.4,-21.1 h -10.5 c -22.1,0 -34.5,-15.3 -34.5,-34.3 v -2.9 c 0,-19 15.3,-34.8 34.3,-34.8 h 27.1 c 0.8,4.3 1.5,13.1 1.5,19.6 -0.1,19.4 -8.1,42.9 -17.9,52.4 z"
                    id="path3041" style="fill:#4ba9d6"/>
        </g>
    </g>
</svg>
