<svg xmlns="http://www.w3.org/2000/svg" xmlns:xlink="http://www.w3.org/1999/xlink" width="296.113" height="33" viewBox="0 0 296.113 33"><defs><path id="a" d="M0 0h28.502v33H0z"/></defs><clipPath id="b"><use xlink:href="#a" overflow="visible"/></clipPath><path clip-path="url(#b)" fill="#FFF" d="M26.729 2.271s-1.715 3.679-2.585 5.505c-4.267-1.963-9.86-2.242-14.559.542-3.135 1.916-5.661 5.322-5.923 8.979-.085 2.435.973 5.104.625 7.542-.088 1.305-.389 2.609-.999 3.738-.784 1.307-1.723 2.44-3.288 2.529.349-.436 2.768-1.629 1.817-7.109-.378-2.172-3.364-7.559-.479-14.312C3.974 3.518 15.372-3.787 26.729 2.271z"/><path clip-path="url(#b)" fill="#FFF" d="M13.666 13.083c1.479-.531 3.13-.541 4.7-.196 2.958.525 5.175 2.312 6.254 4.961 1.129 2.776 1.942 5.016 3.882 7.389.054.066-3.032-.455-3.02-.54.755-5.499-4.445-5.725-5.877-3.666 1.08 1.186 2.93 1.793 4.368 1.565-.305 5.46 1.216 10.416 1.131 10.404-1.24-.171-6.914-3.51-8.572-4.959-2.439.435-4.349 1.335-7.171 1.725-.087.012.518-2.083.432-3.126 0-2.874-2.202-5.566-.643-9.096.932-2.115 2.339-3.678 4.516-4.461z"/><path fill="#FFF" d="M15.71 11.428c.164.002.417.04.419.021.048-.188.203-1.549 1.362-2.545 1.292-1.104 2.988-.993 2.972-1.004-1.691-.516-3.432-.554-4.638-.448l-.115 3.976zM4.955 16.382c-.256 1.641-.275 3.156-.137 3.963.003.014.242-1.387 1.037-2.174.694-.684 1.573-.816 1.889-.807 0-.003.156-.534.135-.535l-2.924-.447zm3.274-.304c.086-.217.187-.408.314-.657l-3.002-1.167c-.188.376-.328.935-.398 1.241l3.086.583zm.725-1.144c.008-.009.48-.615.488-.607l-2.753-2.072a5.789 5.789 0 0 0-.707 1.183l2.972 1.496zm1.024-1.128c.014-.015.611-.553.611-.553L8.203 10.54c-.536.466-.7.678-1.026 1.075l2.801 2.191zm1.237-.94c.005.033.687-.381.7-.411l-1.77-3.225c-.678.326-1.11.677-1.309.816l2.379 2.82zm1.315-.713c.844-.287.843-.297.843-.282l-1.008-3.623c-.558.165-1.316.489-1.495.606l1.66 3.299zm1.496-.493c.029.017.763-.163.771-.163l.092-3.928c-.03.03-.909.166-1.66.375l.797 3.716zm22.576 1.926h2.811l3.113 5.011 3.116-5.011h2.81v11.849h-2.59V17.7l-3.336 5.06h-.067l-3.301-5.011v7.686h-2.556V13.586zm14.811 0h2.606v11.849h-2.606V13.586zm5.043 5.958v-.034c0-3.368 2.539-6.128 6.178-6.128 2.238 0 3.575.745 4.674 1.829l-1.66 1.912c-.913-.827-1.844-1.336-3.031-1.336-1.998 0-3.434 1.659-3.434 3.69v.034c0 2.032 1.403 3.726 3.434 3.726 1.354 0 2.185-.54 3.116-1.389l1.659 1.676c-1.218 1.304-2.572 2.117-4.858 2.117-3.488-.001-6.078-2.693-6.078-6.097zm13.016-5.958h2.607v4.689h4.809v-4.689h2.607v11.849h-2.607v-4.754h-4.809v4.754h-2.607V13.586zm12.981 0h2.608v11.849h-2.608V13.586zm5.044 5.958v-.034c0-3.368 2.625-6.128 6.215-6.128 2.132 0 3.418.576 4.656 1.627l-1.643 1.98c-.916-.763-1.727-1.204-3.099-1.204-1.895 0-3.404 1.676-3.404 3.69v.034c0 2.169 1.491 3.76 3.589 3.76.95 0 1.795-.236 2.456-.711v-1.694h-2.624v-2.25h5.146v5.145c-1.219 1.033-2.896 1.881-5.062 1.881-3.689 0-6.23-2.59-6.23-6.096zm17.858-6.044h2.404l5.08 11.934h-2.727l-1.084-2.657h-5.011l-1.084 2.657h-2.658l5.08-11.934zm2.744 6.976l-1.575-3.842-1.576 3.842h3.151zm6.564-6.89h2.405l5.554 7.296v-7.296h2.574v11.849h-2.219l-5.738-7.531v7.531h-2.575V13.586zm17.638 10.124l1.54-1.846c1.067.88 2.186 1.439 3.54 1.439 1.064 0 1.708-.424 1.708-1.118v-.034c0-.66-.405-.999-2.386-1.506-2.387-.609-3.93-1.27-3.93-3.622v-.034c0-2.151 1.727-3.575 4.149-3.575 1.728 0 3.199.543 4.402 1.509l-1.354 1.963c-1.05-.729-2.083-1.168-3.082-1.168-.999 0-1.522.456-1.522 1.032v.033c0 .779.507 1.033 2.555 1.56 2.404.626 3.759 1.487 3.759 3.554v.035c0 2.354-1.795 3.673-4.351 3.673a7.544 7.544 0 0 1-5.028-1.895zm14.152-7.72h-3.608v-2.404h9.819v2.404h-3.604v9.445h-2.607V15.99zM157.2 13.5h2.402l5.079 11.934h-2.726l-1.082-2.657h-5.011l-1.085 2.657h-2.657L157.2 13.5zm2.74 6.976l-1.573-3.842-1.573 3.842h3.146zm7.805-4.486h-3.605v-2.404h9.818v2.404h-3.607v9.445h-2.605V15.99zm8.209-2.404h8.938v2.319h-6.349v2.405h5.586v2.319h-5.586v2.487h6.434v2.318h-9.023V13.586zm16.568 6.923v-6.923h.882v6.838c0 2.794 1.507 4.402 4.013 4.402 2.403 0 3.944-1.454 3.944-4.317v-6.923h.88v6.821c0 3.402-1.981 5.216-4.858 5.216-2.846 0-4.861-1.796-4.861-5.114zm13.05-6.923h.831l8.178 10.31v-10.31h.846v11.849h-.66l-8.347-10.529v10.529h-.848V13.586zm13.493 0h.877v11.849h-.877V13.586zm3.502 0h.98l4.641 10.901 4.655-10.901h.93l-5.213 11.935h-.78l-5.213-11.935zm13.709 0h8.433v.812h-7.553v4.656h6.79v.812h-6.79v4.758h7.635v.811h-8.515V13.586zm11.344 0h4.974c1.458 0 2.627.457 3.338 1.167.556.56.896 1.354.896 2.203v.034c0 1.98-1.474 3.113-3.472 3.386l3.909 5.06h-1.114l-3.776-4.908h-3.88v4.908h-.875v-11.85zm4.871 6.144c1.984 0 3.456-.999 3.456-2.707v-.034c0-1.593-1.254-2.592-3.402-2.592h-4.05v5.333h3.996zm6.602 3.98l.578-.66c1.3 1.201 2.504 1.76 4.248 1.76 1.778 0 2.996-1 2.996-2.354v-.034c0-1.253-.663-1.981-3.353-2.522-2.846-.574-3.994-1.538-3.994-3.334v-.036c0-1.761 1.607-3.116 3.81-3.116 1.726 0 2.86.476 4.062 1.44l-.559.694c-1.117-.964-2.238-1.338-3.537-1.338-1.745 0-2.898.999-2.898 2.234v.034c0 1.253.645 2.016 3.453 2.591 2.742.56 3.895 1.542 3.895 3.269v.034c0 1.913-1.643 3.232-3.929 3.232-1.895.001-3.352-.625-4.772-1.894zm11.713-10.124h.881v11.849h-.881V13.586zm7.802.811h-4.131v-.812h9.141v.812h-4.127v11.037h-.883V14.397zm11.546 6.349l-5.083-7.16h1.102l4.438 6.366 4.449-6.366h1.054l-5.083 7.144v4.705h-.876v-4.689z"/></svg>