<svg id="Logo" xmlns="http://www.w3.org/2000/svg" viewBox="0 0 621.46 116.81">
  <defs>
    <style>
      .cls-1 {
        fill: #000;
      }
    </style>
  </defs>
  <title>logo_medical-surgical</title>
  <g>
    <g>
      <path class="cls-1" d="M554.24,197.92v43.41h-3.78V209.15l-11.77,32.18h-3.62l-11.72-32.18v32.18h-3.78V197.92h3.67l13.66,37.31,13.61-37.31Z" transform="translate(-89.27 -191.6)"/>
      <path class="cls-1" d="M560.93,225.62c0-8.86,5.78-16.63,13.61-16.63,6.1,0,10.37,3.45,10.37,8.1,0,5-4.91,8.69-11.61,8.69h-7.4c-.92,0-1,.92-1,1.3,0,4.59,4.53,10.42,9.72,10.42,3.13,0,5.45-1,8-4.43l3,2.27c-2.64,3.56-5.61,6-11.07,6C566.39,241.33,560.93,233.88,560.93,225.62ZM565,222a4.84,4.84,0,0,1,.87-.11h7.34c4.75,0,7.89-2.1,7.89-4.86,0-1.94-1.84-4.32-6.54-4.32C570,212.71,566.12,216.65,565,222Z" transform="translate(-89.27 -191.6)"/>
      <path class="cls-1" d="M589.82,225.46a16.16,16.16,0,0,1,16-16H608c1.73,0,1.73-1,1.73-1.19V197.92h3.78v43.41h-7.67A16.07,16.07,0,0,1,589.82,225.46Zm19.82-12.32a8.22,8.22,0,0,1-1.67.17h-2.21a12.15,12.15,0,1,0,0,24.3h3.88V213.14Z" transform="translate(-89.27 -191.6)"/>
      <path class="cls-1" d="M625.14,197.92a2.76,2.76,0,0,1,2.75,2.75,2.72,2.72,0,0,1-2.75,2.7,2.68,2.68,0,0,1-2.7-2.7A2.72,2.72,0,0,1,625.14,197.92ZM623.36,209h3.78v32.34h-3.78Z" transform="translate(-89.27 -191.6)"/>
      <path class="cls-1" d="M635.13,225.19c0-8.81,6.21-16.2,13.66-16.2,4.11,0,7.4,1.67,10.59,5.94l-3,2.26c-2.48-3.29-4.86-4.42-7.5-4.42-5.35,0-9.83,5.34-9.83,12.42s4.48,12.36,9.83,12.36c2.64,0,5.18-1.13,7.66-4.43l3,2.27c-3.19,4.27-6.75,5.94-10.69,5.94C640.42,241.33,635.13,233.07,635.13,225.19Z" transform="translate(-89.27 -191.6)"/>
      <path class="cls-1" d="M664,231.61c0-5.45,5.4-9.72,11.66-9.72h6.59c.21,0,1.29,0,1.29-1.46v-1.78c0-3.13-3.24-5.88-7.45-5.88a8,8,0,0,0-6.42,2.91l-1.14,1.51-3-2.26,1.13-1.52a11.82,11.82,0,0,1,9.51-4.42c6,0,11.17,4.37,11.17,9.72v13c0,5.45-5.4,9.66-11.66,9.66S664,237.07,664,231.61Zm11.61-5.83c-4.32.05-7.94,2.65-7.94,5.83s3.62,5.89,7.94,5.89,7.93-2.76,7.93-5.89v-6.05a5.58,5.58,0,0,1-1.4.17Z" transform="translate(-89.27 -191.6)"/>
      <path class="cls-1" d="M694.31,197.92h3.78v43.41h-3.78Z" transform="translate(-89.27 -191.6)"/>
      <path class="cls-1" d="M533.66,297.33a23.58,23.58,0,0,1-9.5-1.56,14.14,14.14,0,0,1-5.35-4.27L517.63,290l3-2.27,1.13,1.46c1.84,2.32,4,4.38,11.88,4.38,7.24,0,11.45-3.4,11.45-8.7,0-4.75-4.05-6.15-11.66-8s-14.69-4.27-14.69-11.78c0-7.12,5.46-11.17,14.9-11.17a15.38,15.38,0,0,1,12.05,5.88l1.18,1.46-3,2.27-1.13-1.46a11.47,11.47,0,0,0-9-4.43c-7.45,0-11.07,2.49-11.07,7.4s4.1,6.32,11.82,8.21c3.35.81,6.86,1.67,9.62,3.24a9.41,9.41,0,0,1,5.07,8.37c0,8.15-6.75,12.47-15.33,12.47Z" transform="translate(-89.27 -191.6)"/>
      <path class="cls-1" d="M555.64,284.91V265h3.78v19.92c0,4.81,3.57,8.64,7.89,8.64s7.88-3.83,7.88-8.64V265H579v19.92c0,6.86-5.29,12.42-11.66,12.42S555.64,291.77,555.64,284.91Z" transform="translate(-89.27 -191.6)"/>
      <path class="cls-1" d="M587.61,297.33V277.46c0-6.8,5.18-12.47,11.66-12.47h.54v3.78h-.54c-4.32,0-7.88,3.83-7.88,8.64v19.92Z" transform="translate(-89.27 -191.6)"/>
      <path class="cls-1" d="M627.68,265v33.64c0,5.34-5.19,9.77-11.18,9.77a12.52,12.52,0,0,1-10.58-5.94l3-2.27a8.86,8.86,0,0,0,7.51,4.43c4.21,0,7.45-2.81,7.45-5.94,0-1.35-.27-1.83-1.62-1.83h-2.22a16.16,16.16,0,0,1-16-16,16,16,0,0,1,16-15.87Zm-3.78,28.13V268.71H620a12.15,12.15,0,1,0,0,24.3h2.21A7.8,7.8,0,0,1,623.9,293.12Z" transform="translate(-89.27 -191.6)"/>
      <path class="cls-1" d="M637.78,253.92a2.76,2.76,0,0,1,2.75,2.75,2.72,2.72,0,0,1-2.75,2.7,2.67,2.67,0,0,1-2.7-2.7A2.71,2.71,0,0,1,637.78,253.92ZM636,265h3.78v32.34H636Z" transform="translate(-89.27 -191.6)"/>
      <path class="cls-1" d="M647.77,281.19c0-8.81,6.21-16.2,13.66-16.2,4.1,0,7.4,1.67,10.58,5.94l-3,2.26c-2.49-3.29-4.86-4.42-7.51-4.42-5.34,0-9.83,5.34-9.83,12.42s4.49,12.36,9.83,12.36c2.65,0,5.19-1.13,7.67-4.42l3,2.26c-3.18,4.27-6.75,5.94-10.69,5.94C653.06,297.33,647.77,289.07,647.77,281.19Z" transform="translate(-89.27 -191.6)"/>
      <path class="cls-1" d="M676.6,287.61c0-5.45,5.4-9.72,11.67-9.72h6.58c.22,0,1.3-.05,1.3-1.46v-1.78c0-3.13-3.24-5.88-7.45-5.88a8,8,0,0,0-6.43,2.91l-1.13,1.51-3-2.26,1.14-1.52a11.8,11.8,0,0,1,9.5-4.42c6,0,11.18,4.37,11.18,9.72v13c0,5.45-5.4,9.66-11.66,9.66S676.6,293.07,676.6,287.61Zm11.61-5.83c-4.32.05-7.94,2.65-7.94,5.83s3.62,5.89,7.94,5.89,7.94-2.75,7.94-5.89v-6.05a5.63,5.63,0,0,1-1.4.17Z" transform="translate(-89.27 -191.6)"/>
      <path class="cls-1" d="M707,253.92h3.78v43.41H707Z" transform="translate(-89.27 -191.6)"/>
    </g>
    <rect class="cls-1" x="393.36" width="6.97" height="112"/>
    <g>
      <path class="cls-1" d="M89.27,293.67l32.08-92.14h9.1l32.07,92h-11.6L140.57,264.2a14.79,14.79,0,0,1-6.14,1l-18.77-.12c-4.66,0-6,2.51-6.14,3l-8.87,25.6ZM114,255.45a6.3,6.3,0,0,1,3.3-.69h15c3.64,0,4.55-1.25,4.55-1.25L125.9,221.78Z" transform="translate(-89.27 -191.6)"/>
      <polygon class="cls-1" points="95.66 102.07 69.84 32.8 81.67 32.8 100.33 82.5 118.75 32.8 130.58 32.8 104.76 102.07 95.66 102.07"/>
      <path class="cls-1" d="M226,272.28c0-12.29,12.29-21.38,25.71-21.38h7.4c3.18,0,7.28-1.71,7.28-5.12,0-5.24-5.58-10.35-13.54-10.35-5.12,0-9.56,2-15.24,9.66l-8.88-6.59c5.46-9.1,15.59-14.11,24-14.11,13.19,0,24.57,9.56,24.57,21.39v26.5c0,12.17-12.18,21.39-25.6,21.39S226,284.45,226,272.28m11.15-.11c0,5.34,6.37,10.46,14.56,10.46s14.56-5.23,14.56-10.46V259.88s-.91,1.94-14.56,1.82c-8.19,0-14.56,5.12-14.56,10.47" transform="translate(-89.27 -191.6)"/>
      <path class="cls-1" d="M334.17,293.67V251.35c0-9-6.71-15.92-14.45-15.92s-14.44,6.93-14.44,15.92v42.32h-11V251.35c0-14.67,11.26-27,25.48-27,14,0,25.48,12.17,25.48,27v42.32Z" transform="translate(-89.27 -191.6)"/>
      <path class="cls-1" d="M387.06,282.63h2.73v11h-2.73a24.65,24.65,0,0,1-18.31-8.08,27.33,27.33,0,0,1-7.28-19V201.53h11v24.68s.68-.91,2.84-.91h14.45v11H376.25c-1.82,0-3.64,1-3.64,2.73v27.41c-.11,9.1,6.6,16.15,14.45,16.15" transform="translate(-89.27 -191.6)"/>
      <path class="cls-1" d="M400.48,260.11c0-18.2,11.83-35.72,29.35-35.72,13.19,0,22.86,7.62,22.86,18.2,0,11.49-11.37,19.22-25.48,19.22H415.5a2.85,2.85,0,0,0-3.07,3.19c0,8.76,10,17.4,17.4,17.4,6,0,10.24-1.93,16-9.66l8.76,6.59c-5.92,8-13.2,14.34-24.57,14.34-17.29,0-29.58-16.16-29.58-33.56m11.6-7.74a6.5,6.5,0,0,1,4.67-1.59h10.58c9.21,0,14.44-4,14.44-8.19,0-2.73-2.73-7.16-11.71-7.16-8.19,0-15.47,6.71-18,16.94" transform="translate(-89.27 -191.6)"/>
    </g>
  </g>
</svg>
