<?xml version="1.0" encoding="UTF-8"?> <!-- Generator: Adobe Illustrator 21.0.1, SVG Export Plug-In . SVG Version: 6.00 Build 0) --> <svg xmlns="http://www.w3.org/2000/svg" xmlns:xlink="http://www.w3.org/1999/xlink" id="Layer_1" x="0px" y="0px" viewBox="0 0 288.1 124" style="enable-background:new 0 0 288.1 124;" xml:space="preserve"> <style type="text/css"> .st0{fill:#E65925;} .st1{fill:#414042;} .st2{fill:#239E98;} .st3{fill:#FDB933;} .st4{fill:#9D9FA2;} .st5{fill:#49C0B6;} </style> <g> <g> <path class="st0" d="M177.5,95.4c0-2,1.7-3.9,3.8-3.9c1.9,0,3.1,1.3,3.1,3c0,2-1.7,3.9-3.8,3.9C178.7,98.4,177.5,97.1,177.5,95.4z M182.9,94.6c0-1.1-0.7-1.8-1.7-1.8c-1.3,0-2.3,1.3-2.3,2.5c0,1.1,0.7,1.8,1.7,1.8C181.9,97.1,182.9,95.8,182.9,94.6z"></path> <path class="st0" d="M186.8,93H186l0.3-1.3h0.8l0.1-0.5c0.4-1.4,1.2-2,2.5-2c0.5,0,1,0.1,1.3,0.2l-0.3,1.3 c-0.3-0.1-0.6-0.2-0.9-0.2c-0.5,0-0.9,0.3-1.1,0.9l-0.1,0.4h1.8l-0.4,1.3h-1.8l-1.4,5.3h-1.5L186.8,93z"></path> <path class="st0" d="M194.6,94.7c0-2.8,2.4-5.3,5.3-5.3c1.6,0,2.8,0.7,3.4,1.9l-1.3,0.9c-0.5-0.8-1.2-1.3-2.3-1.3 c-1.9,0-3.5,1.8-3.5,3.8c0,1.4,1,2.4,2.4,2.4c1,0,1.6-0.4,2.3-1l1,1c-0.8,0.8-1.8,1.4-3.4,1.4C196.3,98.4,194.6,97,194.6,94.7z"></path> <path class="st0" d="M203.2,95.4c0-2,1.7-3.9,3.8-3.9c1.9,0,3.1,1.3,3.1,3c0,2-1.8,3.9-3.8,3.9C204.5,98.4,203.2,97.1,203.2,95.4z M208.7,94.6c0-1.1-0.7-1.8-1.7-1.8c-1.3,0-2.3,1.3-2.3,2.5c0,1.1,0.7,1.8,1.7,1.8C207.7,97.1,208.7,95.8,208.7,94.6z"></path> <path class="st0" d="M212.6,91.7h1.5l-0.2,0.8c0.5-0.5,1.2-1,2-1c1.2,0,2,0.8,2,2c0,0.4-0.1,0.8-0.2,1.2l-0.9,3.6h-1.5l1-3.7 c0.1-0.2,0.1-0.5,0.1-0.7c0-0.7-0.4-1-1.1-1c-0.8,0-1.5,0.7-1.8,1.6l-1,3.7h-1.5L212.6,91.7z"></path> <path class="st0" d="M219.3,97.1c0-0.2,0-0.5,0.1-0.8l0.9-3.3h-0.8l0.4-1.3h0.8l0.5-1.8h1.5l-0.5,1.8h1.8l-0.3,1.3h-1.8l-0.8,3.2 c0,0.1,0,0.3,0,0.4c0,0.3,0.2,0.5,0.7,0.5c0.3,0,0.6-0.1,1-0.2l-0.3,1.3c-0.4,0.2-0.8,0.2-1.2,0.2 C219.9,98.4,219.3,97.9,219.3,97.1z"></path> <path class="st0" d="M225.4,91.7h1.5l-0.4,1.5c0.7-1,1.6-1.7,2.8-1.6l-0.4,1.6h-0.1c-1.3,0-2.5,0.8-3,2.7l-0.7,2.4h-1.5 L225.4,91.7z"></path> <path class="st0" d="M228.7,96.6c0-1.5,1.2-2.4,2.9-2.4c0.7,0,1.4,0.1,2,0.3l0-0.1c0-0.2,0.1-0.3,0.1-0.5c0-0.6-0.4-1-1.4-1 c-0.7,0-1.3,0.2-1.8,0.4l-0.2-1.2c0.7-0.3,1.5-0.5,2.4-0.5c1.7,0,2.6,0.8,2.6,2c0,0.3,0,0.6-0.1,0.9l-1,3.7h-1.5l0.2-0.9 c-0.6,0.6-1.2,1-2.1,1C229.6,98.4,228.7,97.7,228.7,96.6z M233.3,95.7l0.1-0.3c-0.4-0.1-0.9-0.2-1.5-0.2c-1,0-1.6,0.5-1.6,1.2 c0,0.6,0.4,0.9,1,0.9C232.2,97.3,233.1,96.5,233.3,95.7z"></path> <path class="st0" d="M240.5,94.7c0-2.8,2.4-5.3,5.3-5.3c1.6,0,2.8,0.7,3.4,1.9l-1.3,0.9c-0.5-0.8-1.2-1.3-2.3-1.3 c-1.9,0-3.5,1.8-3.5,3.8c0,1.4,1,2.4,2.4,2.4c1,0,1.6-0.4,2.3-1l1,1c-0.8,0.8-1.8,1.4-3.4,1.4C242.2,98.4,240.5,97,240.5,94.7z"></path> <path class="st0" d="M249.1,95.4c0-2,1.7-3.9,3.8-3.9c1.9,0,3.1,1.3,3.1,3c0,2-1.8,3.9-3.8,3.9C250.4,98.4,249.1,97.1,249.1,95.4z M254.6,94.6c0-1.1-0.7-1.8-1.7-1.8c-1.3,0-2.3,1.3-2.3,2.5c0,1.1,0.7,1.8,1.7,1.8C253.6,97.1,254.6,95.8,254.6,94.6z"></path> <path class="st0" d="M256.5,97.2l0.9-0.9c0.7,0.7,1.5,0.9,2.1,0.9c0.6,0,1.1-0.3,1.1-0.8c0-0.3-0.3-0.5-1-0.8 c-1.1-0.5-1.9-0.9-1.9-1.9c0-1.2,1-2.2,2.6-2.2c1,0,2,0.5,2.5,0.9l-0.8,1c-0.6-0.5-1.2-0.7-1.8-0.7c-0.6,0-1,0.3-1,0.8 c0,0.3,0.3,0.5,1,0.9c1,0.4,1.8,0.9,1.8,1.8c0,1.4-1.1,2.2-2.6,2.2C258.4,98.4,257.2,98,256.5,97.2z"></path> <path class="st0" d="M263.6,97.1c0-0.2,0-0.5,0.1-0.8l0.9-3.3h-0.8l0.4-1.3h0.8l0.5-1.8h1.5l-0.5,1.8h1.8l-0.3,1.3h-1.8l-0.8,3.2 c0,0.1,0,0.3,0,0.4c0,0.3,0.2,0.5,0.7,0.5c0.3,0,0.6-0.1,1-0.2l-0.3,1.3c-0.4,0.2-0.8,0.2-1.2,0.2 C264.1,98.4,263.6,97.9,263.6,97.1z"></path> <path class="st0" d="M268,96.6c0-1.5,1.2-2.4,2.9-2.4c0.7,0,1.4,0.1,2,0.3l0-0.1c0-0.2,0.1-0.3,0.1-0.5c0-0.6-0.4-1-1.4-1 c-0.7,0-1.3,0.2-1.8,0.4l-0.2-1.2c0.7-0.3,1.5-0.5,2.4-0.5c1.7,0,2.6,0.8,2.6,2c0,0.3,0,0.6-0.1,0.9l-1,3.7H272l0.2-0.9 c-0.6,0.6-1.2,1-2.1,1C268.9,98.4,268,97.7,268,96.6z M272.6,95.7l0.1-0.3c-0.4-0.1-0.9-0.2-1.5-0.2c-1,0-1.6,0.5-1.6,1.2 c0,0.6,0.4,0.9,1,0.9C271.6,97.3,272.4,96.5,272.6,95.7z"></path> </g> </g> <g> <path class="st1" d="M73.8,55.7c3.2,0,5.9,1.1,8.2,3.4c2.3,2.3,3.4,5.1,3.4,8.4c0,3.3-1.1,6-3.4,8.3c-2.3,2.3-5,3.4-8.2,3.4 c-3.4,0-6.2-1.2-8.4-3.5c-2.2-2.3-3.3-5.1-3.3-8.3c0-2.1,0.5-4.1,1.6-5.9c1-1.8,2.5-3.2,4.3-4.3C69.8,56.2,71.8,55.7,73.8,55.7z M73.8,59.9c-2.1,0-3.8,0.7-5.2,2.2c-1.4,1.4-2.1,3.3-2.1,5.5c0,2.5,0.9,4.4,2.7,5.9c1.4,1.1,3,1.7,4.8,1.7c2,0,3.8-0.7,5.2-2.2 s2.1-3.3,2.1-5.4c0-2.1-0.7-3.9-2.2-5.4C77.6,60.6,75.9,59.9,73.8,59.9z"></path> <path class="st1" d="M89,62.1h4.2V64c0.7-0.8,1.5-1.4,2.4-1.8c0.9-0.4,1.8-0.6,2.8-0.6c1,0,2,0.3,2.8,0.8s1.5,1.3,2,2.2 c0.7-1,1.5-1.7,2.4-2.2c1-0.5,2-0.8,3.2-0.8c1.2,0,2.2,0.3,3.1,0.8c0.9,0.5,1.5,1.3,1.9,2.2c0.4,0.9,0.6,2.3,0.6,4.3v9.7h-4.2v-8.4 c0-1.9-0.2-3.2-0.7-3.8c-0.5-0.7-1.2-1-2.1-1c-0.7,0-1.4,0.2-1.9,0.6c-0.6,0.4-1,1-1.3,1.7c-0.3,0.7-0.4,1.9-0.4,3.5v7.5h-4.2v-8 c0-1.5-0.1-2.6-0.3-3.2c-0.2-0.7-0.5-1.2-1-1.5c-0.4-0.3-1-0.5-1.6-0.5c-0.7,0-1.3,0.2-1.9,0.6c-0.6,0.4-1,1-1.3,1.7 c-0.3,0.7-0.4,1.9-0.4,3.5v7.4H89V62.1z"></path> <path class="st1" d="M122.6,55.7v8.2c0.8-0.8,1.6-1.3,2.4-1.7c0.9-0.4,1.8-0.6,2.8-0.6c2.2,0,4,0.8,5.5,2.5 c1.5,1.6,2.3,3.7,2.3,6.3c0,2.5-0.8,4.5-2.4,6.2c-1.6,1.7-3.4,2.5-5.6,2.5c-1,0-1.8-0.2-2.7-0.5s-1.6-0.9-2.5-1.7v1.8h-4.1v-23 H122.6z M126.9,65.5c-1.3,0-2.4,0.4-3.3,1.3s-1.3,2.1-1.3,3.5c0,1.5,0.4,2.7,1.3,3.6c0.9,0.9,2,1.4,3.3,1.4c1.3,0,2.3-0.5,3.2-1.4 c0.9-0.9,1.3-2.1,1.3-3.5c0-1.4-0.4-2.6-1.3-3.5C129.3,66,128.2,65.5,126.9,65.5z"></path> <path class="st1" d="M139,62.1h4.2v8c0,1.6,0.1,2.6,0.3,3.2c0.2,0.6,0.6,1.1,1,1.4c0.5,0.3,1.1,0.5,1.8,0.5c0.7,0,1.3-0.2,1.8-0.5 c0.5-0.3,0.8-0.8,1.1-1.5c0.2-0.5,0.3-1.5,0.3-3.1v-8.1h4.2v7c0,2.9-0.2,4.9-0.7,6c-0.6,1.3-1.4,2.3-2.5,3c-1.1,0.7-2.5,1-4.2,1 c-1.8,0-3.3-0.4-4.4-1.2c-1.1-0.8-1.9-1.9-2.4-3.4c-0.3-1-0.5-2.8-0.5-5.5V62.1z"></path> <path class="st1" d="M170.1,55.7h4.2v23h-4.2V77c-0.8,0.8-1.6,1.3-2.4,1.7c-0.8,0.3-1.7,0.5-2.7,0.5c-2.1,0-4-0.8-5.6-2.5 c-1.6-1.7-2.3-3.7-2.3-6.2c0-2.6,0.8-4.7,2.3-6.3c1.5-1.6,3.4-2.5,5.5-2.5c1,0,1.9,0.2,2.8,0.6c0.9,0.4,1.7,0.9,2.4,1.7V55.7z M165.7,65.5c-1.3,0-2.4,0.5-3.2,1.4c-0.9,0.9-1.3,2.1-1.3,3.5c0,1.4,0.4,2.6,1.3,3.5c0.9,0.9,1.9,1.4,3.2,1.4 c1.3,0,2.4-0.5,3.3-1.4c0.9-0.9,1.3-2.1,1.3-3.6c0-1.4-0.4-2.6-1.3-3.5C168.1,66,167,65.5,165.7,65.5z"></path> <path class="st1" d="M188.6,64.4L186,67c-1-1-2-1.6-2.9-1.6c-0.5,0-0.8,0.1-1.1,0.3c-0.3,0.2-0.4,0.4-0.4,0.7 c0,0.2,0.1,0.4,0.3,0.6c0.2,0.2,0.6,0.4,1.2,0.8l1.5,0.8c1.6,0.8,2.7,1.6,3.3,2.4s0.9,1.8,0.9,2.9c0,1.5-0.5,2.7-1.6,3.7 c-1.1,1-2.5,1.5-4.4,1.5c-2.4,0-4.4-0.9-5.8-2.8l2.6-2.8c0.5,0.6,1.1,1,1.7,1.4c0.7,0.4,1.2,0.5,1.7,0.5c0.5,0,1-0.1,1.3-0.4 s0.5-0.6,0.5-0.9c0-0.6-0.6-1.3-1.8-1.9l-1.4-0.7c-2.7-1.4-4-3-4-5.1c0-1.3,0.5-2.4,1.5-3.4c1-0.9,2.3-1.4,3.9-1.4 c1.1,0,2.1,0.2,3,0.7C187.1,62.9,187.9,63.5,188.6,64.4z"></path> <path class="st1" d="M192.2,62.1h4.2V64c0.7-0.8,1.5-1.4,2.4-1.8c0.9-0.4,1.8-0.6,2.8-0.6c1,0,2,0.3,2.8,0.8s1.5,1.3,2,2.2 c0.7-1,1.5-1.7,2.4-2.2s2-0.8,3.2-0.8c1.2,0,2.2,0.3,3.1,0.8c0.9,0.5,1.5,1.3,1.9,2.2c0.4,0.9,0.6,2.3,0.6,4.3v9.7h-4.2v-8.4 c0-1.9-0.2-3.2-0.7-3.8c-0.5-0.7-1.2-1-2.1-1c-0.7,0-1.4,0.2-1.9,0.6c-0.6,0.4-1,1-1.3,1.7c-0.3,0.7-0.4,1.9-0.4,3.5v7.5h-4.2v-8 c0-1.5-0.1-2.6-0.3-3.2c-0.2-0.7-0.5-1.2-1-1.5c-0.4-0.3-1-0.5-1.6-0.5c-0.7,0-1.3,0.2-1.9,0.6c-0.6,0.4-1,1-1.3,1.7 c-0.3,0.7-0.4,1.9-0.4,3.5v7.4h-4.2V62.1z"></path> <path class="st1" d="M233.8,62.1h4.2v16.6h-4.2V77c-0.8,0.8-1.6,1.3-2.4,1.7s-1.7,0.5-2.7,0.5c-2.1,0-4-0.8-5.6-2.5 c-1.6-1.7-2.3-3.7-2.3-6.2c0-2.6,0.8-4.7,2.3-6.3c1.5-1.6,3.4-2.5,5.5-2.5c1,0,1.9,0.2,2.8,0.6c0.9,0.4,1.7,0.9,2.4,1.7V62.1z M229.4,65.5c-1.3,0-2.4,0.5-3.2,1.4c-0.9,0.9-1.3,2.1-1.3,3.5c0,1.4,0.4,2.6,1.3,3.5c0.9,0.9,1.9,1.4,3.2,1.4 c1.3,0,2.4-0.5,3.3-1.4c0.9-0.9,1.3-2.1,1.3-3.6c0-1.4-0.4-2.6-1.3-3.5S230.8,65.5,229.4,65.5z"></path> <path class="st1" d="M242.2,62.1h4.2v1.7c0.9-0.8,1.8-1.4,2.6-1.7s1.6-0.5,2.4-0.5c1.6,0,3,0.6,4.2,1.7c1,1,1.4,2.4,1.4,4.3v11 h-4.1v-7.3c0-2-0.1-3.3-0.3-3.9s-0.5-1.1-0.9-1.5c-0.4-0.3-1-0.5-1.6-0.5c-0.8,0-1.6,0.3-2.2,0.8c-0.6,0.6-1,1.3-1.3,2.3 c-0.1,0.5-0.2,1.6-0.2,3.4v6.7h-4.2V62.1z"></path> </g> <g> <path class="st1" d="M96.5,86.7l-1.9,1.7c-0.7-0.9-1.3-1.4-2-1.4c-0.3,0-0.6,0.1-0.8,0.3c-0.2,0.2-0.3,0.4-0.3,0.6 c0,0.2,0.1,0.4,0.2,0.6c0.2,0.3,0.8,0.8,1.9,1.7c1,0.8,1.6,1.3,1.8,1.5c0.5,0.5,0.9,1,1.1,1.5c0.2,0.5,0.3,1,0.3,1.6 c0,1.1-0.4,2-1.1,2.7c-0.8,0.7-1.8,1.1-3,1.1c-1,0-1.8-0.2-2.5-0.7s-1.3-1.2-1.8-2.2l2.2-1.3c0.6,1.2,1.4,1.8,2.2,1.8 c0.4,0,0.8-0.1,1.1-0.4c0.3-0.3,0.4-0.6,0.4-0.9c0-0.3-0.1-0.6-0.3-0.9c-0.2-0.3-0.7-0.8-1.5-1.4c-1.5-1.2-2.4-2.1-2.8-2.8 c-0.4-0.7-0.6-1.3-0.6-1.9c0-0.9,0.4-1.7,1.1-2.4c0.7-0.7,1.6-1,2.6-1c0.7,0,1.3,0.2,1.9,0.5C95.1,85.3,95.8,85.8,96.5,86.7z"></path> <path class="st1" d="M99.7,84.8h7.4v2.5h-4.8v2.4h4.8v2.5h-4.8v3.5h4.8v2.5h-7.4V84.8z"></path> <path class="st1" d="M110.1,84.8h2.7c1.5,0,2.5,0.1,3.2,0.4c0.6,0.3,1.1,0.7,1.5,1.3s0.6,1.3,0.6,2.2c0,0.9-0.2,1.6-0.6,2.2 c-0.4,0.6-1.1,1-1.9,1.4l3.2,6H116l-3-5.7h-0.2v5.7h-2.6V84.8z M112.7,90.1h0.8c0.8,0,1.4-0.1,1.7-0.3c0.3-0.2,0.5-0.6,0.5-1.1 c0-0.3-0.1-0.5-0.2-0.8c-0.2-0.2-0.4-0.4-0.6-0.5s-0.7-0.1-1.4-0.1h-0.7V90.1z"></path> <path class="st1" d="M119.8,84.8h2.6l3.4,9.6l3.4-9.6h2.6l-4.9,13.5h-2.5L119.8,84.8z"></path> <path class="st1" d="M134.3,84.8h2.5v13.5h-2.5V84.8z"></path> <path class="st1" d="M152.6,87.2l-1.8,1.7c-1.2-1.3-2.6-1.9-4.1-1.9c-1.3,0-2.4,0.4-3.3,1.3c-0.9,0.9-1.3,2-1.3,3.3 c0,0.9,0.2,1.7,0.6,2.4c0.4,0.7,0.9,1.2,1.7,1.6c0.7,0.4,1.5,0.6,2.4,0.6c0.7,0,1.4-0.1,2-0.4c0.6-0.3,1.3-0.8,2-1.5l1.7,1.8 c-1,1-1.9,1.6-2.8,2c-0.9,0.4-1.9,0.6-3,0.6c-2.1,0-3.8-0.7-5.1-2c-1.3-1.3-2-3-2-5.1c0-1.3,0.3-2.5,0.9-3.6s1.5-1.9,2.6-2.5 c1.1-0.6,2.4-1,3.7-1c1.1,0,2.2,0.2,3.2,0.7C151,85.7,151.9,86.3,152.6,87.2z"></path> <path class="st1" d="M155.4,84.8h7.4v2.5h-4.8v2.4h4.8v2.5h-4.8v3.5h4.8v2.5h-7.4V84.8z"></path> <path class="st1" d="M172.7,86.7l-1.9,1.7c-0.7-0.9-1.3-1.4-2-1.4c-0.3,0-0.6,0.1-0.8,0.3s-0.3,0.4-0.3,0.6c0,0.2,0.1,0.4,0.2,0.6 c0.2,0.3,0.8,0.8,1.9,1.7c1,0.8,1.6,1.3,1.8,1.5c0.5,0.5,0.9,1,1.1,1.5c0.2,0.5,0.3,1,0.3,1.6c0,1.1-0.4,2-1.1,2.7 c-0.8,0.7-1.8,1.1-3,1.1c-1,0-1.8-0.2-2.5-0.7s-1.3-1.2-1.8-2.2l2.2-1.3c0.6,1.2,1.4,1.8,2.2,1.8c0.4,0,0.8-0.1,1.1-0.4 s0.4-0.6,0.4-0.9c0-0.3-0.1-0.6-0.3-0.9c-0.2-0.3-0.7-0.8-1.5-1.4c-1.5-1.2-2.4-2.1-2.8-2.8s-0.6-1.3-0.6-1.9 c0-0.9,0.4-1.7,1.1-2.4c0.7-0.7,1.6-1,2.6-1c0.7,0,1.3,0.2,1.9,0.5C171.3,85.3,172,85.8,172.7,86.7z"></path> </g> <g> <path class="st2" d="M143.5,40.5h5.9v0.9h-5v2.9h4.4v0.9h-4.4V48h5v0.9h-5.9V40.5z"></path> <path class="st2" d="M151.9,40.5h0.9l3,4.6l3-4.6h0.9v8.4h-0.9v-6.8l-3,4.5h0l-3-4.5v6.8h-0.9V40.5z"></path> <path class="st2" d="M162.6,40.5h3.1c1.8,0,3,1,3,2.7v0c0,1.8-1.5,2.7-3.2,2.7h-2v3h-0.9V40.5z M165.5,45.1c1.4,0,2.2-0.7,2.2-1.8 v0c0-1.2-0.9-1.8-2.2-1.8h-2.1v3.7H165.5z"></path> <path class="st2" d="M170.6,44.7L170.6,44.7c0-2.3,1.7-4.4,4.2-4.4c2.5,0,4.1,2,4.1,4.3v0c0,2.3-1.7,4.3-4.2,4.3 C172.2,49,170.6,47,170.6,44.7z M177.9,44.7L177.9,44.7c0-1.9-1.4-3.5-3.2-3.5c-1.9,0-3.2,1.5-3.2,3.4v0c0,1.9,1.4,3.5,3.2,3.5 C176.6,48.2,177.9,46.6,177.9,44.7z"></path> <path class="st2" d="M180.4,40.5h1l2.3,7l2.2-7h0.8l2.2,7l2.3-7h1l-2.9,8.5h-0.8l-2.2-6.8l-2.2,6.8h-0.8L180.4,40.5z"></path> <path class="st2" d="M194.5,40.5h5.9v0.9h-5v2.9h4.4v0.9h-4.4V48h5v0.9h-5.9V40.5z"></path> <path class="st2" d="M202.9,40.5h3.5c1,0,1.8,0.3,2.3,0.8c0.4,0.4,0.6,1,0.6,1.7v0c0,1.4-0.9,2.2-2.2,2.4l2.5,3.4h-1.1l-2.4-3.3 h-2.3v3.3h-0.9V40.5z M206.3,44.8c1.2,0,2.1-0.6,2.1-1.7v0c0-1-0.8-1.7-2.1-1.7h-2.5v3.4H206.3z"></path> <path class="st2" d="M211.8,40.5h5.9v0.9h-5v2.9h4.4v0.9h-4.4V48h5v0.9h-5.9V40.5z"></path> <path class="st2" d="M220.2,40.5h2.8c2.6,0,4.3,1.8,4.3,4.2v0c0,2.4-1.8,4.2-4.3,4.2h-2.8V40.5z M223.1,48c2.1,0,3.4-1.4,3.4-3.3v0 c0-1.9-1.3-3.3-3.4-3.3h-1.9V48H223.1z"></path> <path class="st2" d="M237,40.4h0.9l3.7,8.5h-1l-1-2.2h-4.4l-1,2.2h-0.9L237,40.4z M239.3,45.8l-1.9-4.3l-1.9,4.3H239.3z"></path> <path class="st2" d="M242.9,44.7L242.9,44.7c0-2.3,1.6-4.4,4.1-4.4c1.4,0,2.2,0.4,3,1.1l-0.6,0.7c-0.6-0.6-1.3-1-2.5-1 c-1.8,0-3.1,1.6-3.1,3.4v0c0,2,1.2,3.5,3.2,3.5c0.9,0,1.8-0.4,2.4-0.8v-2.1H247v-0.9h3.4v3.3c-0.8,0.7-1.9,1.3-3.3,1.3 C244.5,49,242.9,47.1,242.9,44.7z"></path> <path class="st2" d="M253.1,40.5h0.9v8.4h-0.9V40.5z"></path> <path class="st2" d="M257,40.5h0.9l5.1,6.7v-6.7h0.9v8.4h-0.7l-5.3-6.9v6.9H257V40.5z"></path> <path class="st2" d="M266.4,44.7L266.4,44.7c0-2.3,1.6-4.4,4.1-4.4c1.4,0,2.2,0.4,3,1.1l-0.6,0.7c-0.6-0.6-1.3-1-2.5-1 c-1.8,0-3.1,1.6-3.1,3.4v0c0,2,1.2,3.5,3.2,3.5c0.9,0,1.8-0.4,2.4-0.8v-2.1h-2.5v-0.9h3.4v3.3c-0.8,0.7-1.9,1.3-3.3,1.3 C268,49,266.4,47.1,266.4,44.7z"></path> </g> <g> <g> <path class="st0" d="M93.4,45.2c-0.4,0-0.8-0.2-1.1-0.5c-0.5-0.6-0.4-1.5,0.2-2l18.9-16c0.6-0.5,1.5-0.4,2,0.2 c0.5,0.6,0.4,1.5-0.2,2l-18.9,16C94.1,45.1,93.7,45.2,93.4,45.2z"></path> </g> <g> <path class="st0" d="M64.1,107.5c-0.1,0-0.1,0-0.2,0c-1-0.1-1.8-1-1.7-2.1l1.5-13.8c0.1-1,1-1.8,2.1-1.7c1,0.1,1.8,1,1.7,2.1 L66,105.9C65.9,106.8,65.1,107.5,64.1,107.5z"></path> </g> <g> <path class="st0" d="M40.7,63.4c-0.1,0-0.1,0-0.2,0l-27.8-3.3c-0.8-0.1-1.4-0.8-1.3-1.6c0.1-0.8,0.8-1.4,1.6-1.3l27.8,3.3 c0.8,0.1,1.4,0.8,1.3,1.6C42.1,62.8,41.4,63.4,40.7,63.4z"></path> </g> <g> <path class="st3" d="M19.7,88c-0.6,0-1.1-0.3-1.3-0.9c-0.3-0.7,0-1.6,0.8-1.9l16.4-7c0.7-0.3,1.6,0,1.9,0.8c0.3,0.7,0,1.6-0.8,1.9 l-16.4,7C20.1,88,19.9,88,19.7,88z"></path> </g> <g> <path class="st4" d="M50.2,52.7c-0.3,0-0.6-0.1-0.8-0.2L28,38.2c-0.7-0.4-0.8-1.3-0.4-2c0.4-0.7,1.3-0.8,2-0.4L51,50.1 c0.7,0.4,0.8,1.3,0.4,2C51.2,52.5,50.7,52.7,50.2,52.7z"></path> </g> <g> <path class="st4" d="M43.8,110.5c-0.2,0-0.4,0-0.6-0.2c-0.7-0.4-1-1.2-0.6-1.9L51.7,90c0.4-0.7,1.2-1,1.9-0.6 c0.7,0.4,1,1.2,0.6,1.9l-9.2,18.4C44.9,110.2,44.4,110.5,43.8,110.5z"></path> </g> <g> <path class="st0" d="M27.9,99.4c-0.4,0-0.8-0.2-1.1-0.5c-0.5-0.6-0.5-1.5,0.2-2l14-12.1c0.6-0.5,1.5-0.5,2,0.2 c0.5,0.6,0.5,1.5-0.2,2L28.8,99C28.6,99.3,28.2,99.4,27.9,99.4z"></path> </g> <g> <path class="st5" d="M77.9,36.2c-0.1,0-0.3,0-0.4-0.1c-0.8-0.2-1.2-1.1-0.9-1.8l6.6-21c0.2-0.8,1.1-1.2,1.8-0.9 c0.8,0.2,1.2,1.1,0.9,1.8l-6.6,21C79.1,35.8,78.5,36.2,77.9,36.2z"></path> </g> <g> <path class="st3" d="M47.7,40.7c-0.6,0-1.3-0.3-1.7-0.8L29.1,18.6c-0.7-0.9-0.6-2.3,0.3-3.1c0.9-0.7,2.3-0.6,3.1,0.3l16.9,21.3 c0.7,0.9,0.6,2.3-0.3,3.1C48.7,40.5,48.2,40.7,47.7,40.7z"></path> </g> <g> <path class="st3" d="M57.7,28.7c-0.6,0-1.2-0.4-1.4-1l-3.1-10.3c-0.2-0.8,0.2-1.6,1-1.8c0.8-0.2,1.6,0.2,1.8,1l3.1,10.3 c0.2,0.8-0.2,1.6-1,1.8C58,28.7,57.8,28.7,57.7,28.7z"></path> </g> <g> <path class="st3" d="M90.7,54.6c-0.5,0-1-0.3-1.3-0.7c-0.4-0.7-0.1-1.6,0.5-2l12-6.8c0.7-0.4,1.6-0.1,2,0.5c0.4,0.7,0.1,1.6-0.5,2 l-12,6.8C91.2,54.6,90.9,54.6,90.7,54.6z"></path> </g> <g> <path class="st5" d="M40.5,56.1c-0.2,0-0.3,0-0.5-0.1l-14.3-4.8c-0.8-0.3-1.2-1.1-0.9-1.8c0.3-0.8,1.1-1.2,1.8-0.9l14.3,4.8 c0.8,0.3,1.2,1.1,0.9,1.8C41.6,55.7,41.1,56.1,40.5,56.1z"></path> </g> <path class="st4" d="M49.8,66.1l-23.3,5.7c-0.8,0.2-1.4,1.1-1.1,1.9c0.2,0.7,0.8,1.2,1.5,1.2c0.1,0,0.2,0,0.4,0l23-5.6 C50.1,68.2,49.9,67.1,49.8,66.1z"></path> <path class="st0" d="M61.5,47.2L49,25.7c-0.4-0.7-1.3-0.9-2-0.5c-0.7,0.4-0.9,1.3-0.5,2l12.4,21.4C59.7,48,60.6,47.5,61.5,47.2z"></path> <path class="st5" d="M63.6,46.5c0.9-0.3,1.9-0.4,2.9-0.6l-2.1-19c-0.1-0.8-0.8-1.4-1.6-1.3c-0.8,0.1-1.4,0.8-1.3,1.6L63.6,46.5z"></path> <path class="st0" d="M68.5,45.8c0.5,0,1,0,1.4,0.1l-0.5-33.5c0-0.8-0.7-1.4-1.4-1.4c0,0,0,0,0,0c-0.8,0-1.4,0.7-1.4,1.5L67,45.9 C67.5,45.8,68,45.8,68.5,45.8z"></path> <path class="st4" d="M91.1,28.4c-0.7-0.5-1.7-0.2-2.2,0.5l-11.8,19c0.9,0.5,1.8,1,2.6,1.7l11.8-19C92,29.9,91.8,28.9,91.1,28.4z"></path> <path class="st5" d="M91.7,40.5c-0.6-0.5-1.5-0.5-2,0.1l-9,9.7c0.7,0.6,1.4,1.3,2.1,2l9.1-9.8C92.3,42,92.2,41.1,91.7,40.5z"></path> <path class="st5" d="M59.6,81.1l-6.5,15.7c-0.3,0.7,0,1.6,0.8,1.9c0.2,0.1,0.4,0.1,0.6,0.1c0.6,0,1.1-0.3,1.3-0.9l6.5-15.7 C61.4,82,60.5,81.6,59.6,81.1z"></path> <path class="st3" d="M56,78.5l-8.9,10.2c-0.5,0.6-0.5,1.5,0.1,2c0.3,0.2,0.6,0.4,1,0.4c0.4,0,0.8-0.2,1.1-0.5l9-10.4 C57.5,79.8,56.7,79.2,56,78.5z"></path> <path class="st5" d="M73.9,82.5c-1.4,0.4-2.8,0.7-4.3,0.8l1.8,11.8c0.2,1.1,1.1,1.9,2.1,1.9c0.1,0,0.2,0,0.3,0 c1.2-0.2,2-1.3,1.8-2.5L73.9,82.5z"></path> <g> <path class="st3" d="M37.7,49.6c-0.8-0.3-1.7,0-2.1,0.8c-0.2,0.3-0.2,0.7-0.1,1.1l5.3,1.8c0.7,0.2,1,0.9,1,1.5l8.8,3.8 c0.3-1,0.7-2,1.2-2.9"></path> <path class="st3" d="M40.9,53.3l-5.3-1.8c0.1,0.4,0.4,0.8,0.9,1l5.4,2.4C42,54.2,41.6,53.5,40.9,53.3z"></path> </g> <g> <path class="st5" d="M43,84.9c0.1,0.1,0.1,0.2,0.2,0.3l11.6-7.9c-0.7-0.7-1.3-1.5-1.8-2.3L35.7,86.8c-0.7,0.5-0.8,1.4-0.4,2 c0.1,0.2,0.3,0.3,0.5,0.4l5.2-4.5C41.6,84.2,42.5,84.3,43,84.9z"></path> <path class="st5" d="M37.3,89.2l5.9-4c0-0.1-0.1-0.2-0.2-0.3c-0.5-0.6-1.4-0.7-2-0.2l-5.2,4.5c0.2,0.1,0.5,0.2,0.7,0.2 C36.8,89.4,37,89.3,37.3,89.2z"></path> </g> </g> <g> <g> <path class="st0" d="M177,109.8c0-1.5,1.2-2.4,2.9-2.4c0.7,0,1.4,0.1,2,0.3l0-0.1c0-0.2,0.1-0.3,0.1-0.5c0-0.6-0.4-1-1.4-1 c-0.7,0-1.3,0.2-1.8,0.4l-0.2-1.2c0.7-0.3,1.5-0.5,2.4-0.5c1.7,0,2.6,0.8,2.6,2c0,0.3,0,0.6-0.1,0.9l-1,3.7H181l0.2-0.9 c-0.6,0.6-1.2,1-2.1,1C177.9,111.7,177,110.9,177,109.8z M181.6,109l0.1-0.3c-0.4-0.1-0.9-0.2-1.5-0.2c-1,0-1.6,0.5-1.6,1.2 c0,0.6,0.4,0.9,1,0.9C180.6,110.5,181.4,109.8,181.6,109z"></path> <path class="st0" d="M186,104.9h1.5l-0.2,0.8c0.5-0.5,1.2-1,2-1c1.2,0,2,0.8,2,2c0,0.4-0.1,0.8-0.2,1.2l-0.9,3.6h-1.5l1-3.7 c0.1-0.2,0.1-0.5,0.1-0.7c0-0.7-0.4-1-1.1-1c-0.8,0-1.5,0.7-1.8,1.6l-1,3.7h-1.5L186,104.9z"></path> <path class="st0" d="M192.4,108.8c0-2.3,1.8-4,3.7-4c1.2,0,1.8,0.6,2.2,1.3l1-3.7h1.5l-2.4,9.1h-1.5l0.2-0.9c-0.6,0.6-1.2,1-2.1,1 C193.5,111.7,192.4,110.6,192.4,108.8z M197.9,107.7c0-1-0.7-1.7-1.7-1.7c-1.2,0-2.3,1.2-2.3,2.6c0,1,0.6,1.6,1.6,1.6 C196.8,110.4,197.9,109.1,197.9,107.7z"></path> <path class="st0" d="M204,110l1.2-1c0.7,0.8,1.5,1.2,2.6,1.2c1,0,1.7-0.5,1.7-1.2c0-0.5-0.4-0.8-1.6-1.3c-1.3-0.5-2.2-1.1-2.2-2.3 c0-1.7,1.5-2.8,3.4-2.8c1.5,0,2.5,0.5,3.2,1.3l-1.1,1c-0.7-0.7-1.3-1-2.2-1c-1,0-1.6,0.6-1.6,1.1c0,0.6,0.4,0.8,1.7,1.3 c1.3,0.5,2.2,1.1,2.2,2.3c0,1.7-1.6,2.8-3.4,2.8C206,111.6,204.8,111.1,204,110z"></path> <path class="st0" d="M212.5,108.7c0-2,1.7-3.9,3.8-3.9c1.9,0,3.1,1.3,3.1,3c0,2-1.8,3.9-3.8,3.9 C213.7,111.7,212.5,110.4,212.5,108.7z M218,107.8c0-1.1-0.7-1.8-1.7-1.8c-1.3,0-2.3,1.3-2.3,2.5c0,1.1,0.7,1.8,1.7,1.8 C217,110.4,218,109,218,107.8z"></path> <path class="st0" d="M222.6,102.4h1.5l-2.4,9.1h-1.5L222.6,102.4z"></path> <path class="st0" d="M223.8,109.8c0-1.5,1.2-2.4,2.9-2.4c0.7,0,1.4,0.1,2,0.3l0-0.1c0-0.2,0.1-0.3,0.1-0.5c0-0.6-0.4-1-1.4-1 c-0.7,0-1.3,0.2-1.8,0.4l-0.2-1.2c0.7-0.3,1.5-0.5,2.4-0.5c1.7,0,2.6,0.8,2.6,2c0,0.3,0,0.6-0.1,0.9l-1,3.7h-1.5l0.2-0.9 c-0.6,0.6-1.2,1-2.1,1C224.6,111.7,223.8,110.9,223.8,109.8z M228.4,109l0.1-0.3c-0.4-0.1-0.9-0.2-1.5-0.2c-1,0-1.6,0.5-1.6,1.2 c0,0.6,0.4,0.9,1,0.9C227.3,110.5,228.1,109.8,228.4,109z"></path> <path class="st0" d="M232.7,104.9h1.5l-0.2,0.8c0.5-0.5,1.2-1,2-1c1.2,0,2,0.8,2,2c0,0.4-0.1,0.8-0.2,1.2l-0.9,3.6h-1.5l1-3.7 c0.1-0.2,0.1-0.5,0.1-0.7c0-0.7-0.4-1-1.1-1c-0.8,0-1.5,0.7-1.8,1.6l-1,3.7h-1.5L232.7,104.9z"></path> <path class="st0" d="M239.2,108.7c0-2,1.7-3.9,3.8-3.9c1.9,0,3.1,1.3,3.1,3c0,2-1.8,3.9-3.8,3.9 C240.4,111.7,239.2,110.4,239.2,108.7z M244.6,107.8c0-1.1-0.7-1.8-1.7-1.8c-1.3,0-2.3,1.3-2.3,2.5c0,1.1,0.7,1.8,1.7,1.8 C243.6,110.4,244.6,109,244.6,107.8z"></path> </g> </g> </svg> 