<?xml version="1.0" encoding="UTF-8" standalone="no"?>
<svg
   xmlns:dc="http://purl.org/dc/elements/1.1/"
   xmlns:cc="http://creativecommons.org/ns#"
   xmlns:rdf="http://www.w3.org/1999/02/22-rdf-syntax-ns#"
   xmlns:svg="http://www.w3.org/2000/svg"
   xmlns="http://www.w3.org/2000/svg"
   shape-rendering="geometricPrecision"
   viewBox="0 0 520.35333 158.112"
   height="158.112"
   width="520.35333"
   xml:space="preserve"
   id="svg2"
   version="1.1"><metadata
     id="metadata8"><rdf:RDF><cc:Work
         rdf:about=""><dc:format>image/svg+xml</dc:format><dc:type
           rdf:resource="http://purl.org/dc/dcmitype/StillImage" /></cc:Work></rdf:RDF></metadata><defs
     id="defs6"><clipPath
       id="clipPath18"
       clipPathUnits="userSpaceOnUse"><path
         id="path16"
         d="m 253.373,107.867 c -4.043,-0.378 -7.877,-2.142 -11.187,-4.522 v 0 c -6.473,-4.653 -9.551,-12.275 -9.334,-20.104 v 0 c 0.192,-6.901 3.169,-12.825 8.718,-16.964 v 0 c 6.806,-5.078 15.187,-7.189 23.09,-9.889 v 0 c 5.731,-1.959 13.01,-4.481 15.583,-10.531 v 0 c 2.494,-5.863 1.505,-14.194 -2.656,-19.036 v 0 c -2.37,-2.759 -6.127,-4.984 -8.876,-5.186 v 0 c -1.415,-0.103 -3.831,-0.225 -5.249,-0.225 v 0 c -5.284,0 -13.272,0.086 -18.556,0.086 v 0 c -2.537,0 -4.88,-0.64 -6.049,-3.159 v 0 c -1.72,-3.707 1.129,-7.694 5.058,-7.812 v 0 c 4.526,-0.134 10.414,-0.085 14.941,-0.085 v 0 c 2.282,0 5.93,-0.045 8.211,0 v 0 c 3.141,0.062 5.223,0.695 7.686,1.61 v 0 c 7.275,2.705 13.078,8.288 15.815,15.566 v 0 c 2.648,7.042 2.806,15.785 -0.163,22.765 v 0 c -2.682,6.306 -8.211,10.435 -14.265,13.272 v 0 c -3.7,1.734 -7.582,3.064 -11.485,4.257 v 0 c -6.469,1.985 -4.955,1.524 -1.929,0.598 v 0 c -3.716,1.166 -7.436,2.444 -10.893,4.227 v 0 c -2.349,1.214 -4.705,2.741 -6.17,4.999 v 0 c -2.854,4.397 -2.051,11.487 1.387,15.321 v 0 c 1.917,2.139 4.766,3.353 7.632,3.798 v 0 c 2.02,0.312 4.593,0.361 6.618,0.361 v 0 c 4.68,0 10.502,-0.159 15.259,-0.106 v 0 c 3.992,0.044 6.912,4.073 5.065,7.839 v 0 c -1.288,2.626 -3.819,3.093 -6.423,3.093 v 0 c -2.78,0 -7.507,0.057 -11.968,0.057 v 0 c -4.062,0 -7.903,-0.047 -9.86,-0.23 m 63.596,-6.333 V 16.766 c 0,-3.083 2.504,-5.583 5.593,-5.583 v 0 c 3.089,0 5.593,2.5 5.593,5.583 v 0 33.418 c 0,1.048 0.852,1.898 1.903,1.898 v 0 h 35.822 c 1.05,0 1.902,-0.85 1.902,-1.898 v 0 -33.418 c 0,-3.083 2.504,-5.583 5.593,-5.583 v 0 h 0.005 c 3.089,0 5.593,2.5 5.593,5.583 v 0 84.759 c 0,3.082 -2.504,5.581 -5.593,5.581 v 0 h -0.005 c -3.089,0 -5.593,-2.499 -5.593,-5.581 v 0 -36.521 c 0,-1.049 -0.852,-1.899 -1.903,-1.899 v 0 l -35.822,0.017 c -1.051,10e-4 -1.902,0.851 -1.902,1.899 v 0 36.513 c 0,3.079 -2.498,5.577 -5.583,5.581 v 0 c -0.004,0 -0.007,0 -0.01,0 v 0 c -3.088,0.001 -5.593,-2.499 -5.593,-5.581 m -225.904,5.572 c -3.089,0 -5.593,-2.499 -5.593,-5.581 v 0 -0.042 c 0,-3.083 2.504,-5.583 5.593,-5.583 v 0 h 16.706 c 1.124,0 2.034,-0.908 2.034,-2.028 v 0 -77.106 c 0,-3.083 2.503,-5.583 5.592,-5.583 v 0 c 3.089,0 5.594,2.5 5.594,5.583 v 0 77.106 c 0,1.12 0.909,2.028 2.032,2.028 v 0 h 16.66 c 3.088,0 5.592,2.5 5.592,5.583 v 0 0.042 c 0,3.082 -2.504,5.581 -5.592,5.581 v 0 z m -38.994,-0.043 c -2.987,0 -5.409,-2.416 -5.409,-5.398 v 0 c 0,-2.982 2.422,-5.399 5.409,-5.399 v 0 h 11.432 c 2.987,0 5.409,2.417 5.409,5.399 v 0 c 0,2.982 -2.422,5.398 -5.409,5.398 v 0 z M 34.56,107.028 31.638,106.84 c -0.568,-0.037 -1.967,-0.166 -2.525,-0.277 v 0 c -0.903,-0.181 -2.264,-0.48 -3.079,-0.784 v 0 c -4.767,-1.781 -8.847,-5.174 -11.461,-9.571 v 0 C 9.764,88.124 10.119,76.198 16.46,68.996 v 0 c 7.153,-8.125 19.056,-9.88 28.928,-12.603 v 0 c 4.425,-1.22 9.278,-2.635 12.846,-5.665 v 0 c 2.717,-2.307 4.001,-5.493 4.452,-8.962 v 0 C 63.217,37.68 62.98,33.29 61.065,29.568 v 0 c -1.1,-2.138 -2.748,-3.94 -4.754,-5.264 v 0 c -0.83,-0.548 -1.649,-1.073 -2.536,-1.493 v 0 C 52.703,22.47 52.277,22.144 49.389,21.84 v 0 c -0.19,-0.02 -0.989,-0.063 -1.22,-0.078 v 0 L 45.961,21.62 c -2.976,-0.192 -5.234,-2.756 -5.042,-5.728 v 0 c 0.192,-2.971 2.761,-5.224 5.738,-5.033 v 0 l 3.74,0.241 c 4.802,0.309 13.022,2.855 17.566,8.015 v 0 c 6.829,7.756 7.597,20.076 4.464,29.693 v 0 c -3.024,9.284 -11.233,14.111 -20.08,16.971 v 0 c -2.672,0.864 -5.38,1.626 -8.124,2.226 v 0 c -9.056,1.981 -11.09,2.549 -15.861,5.385 v 0 c -2.863,1.702 -4.889,4.137 -5.523,7.445 v 0 c -0.709,3.704 -0.256,7.924 2.071,10.996 v 0 c 0.369,0.489 0.78,0.939 1.222,1.351 v 0 c 1.188,1.107 3.431,2.059 5.133,2.551 v 0 c 1.1,0.318 4.481,0.542 4.481,0.542 v 0 c 3.342,0.215 5.757,3.485 4.686,6.907 v 0 c -0.736,2.356 -3.031,3.858 -5.485,3.858 v 0 c -0.129,0 -0.258,-0.004 -0.387,-0.012 M 264.655,67.91 c 10.589,-3.236 2.621,-0.793 -1.929,0.598 v 0 c 0.644,-0.202 1.287,-0.401 1.929,-0.598 M 18.661,21.498 c -2.983,0 -5.401,-2.413 -5.401,-5.392 v 0 c 0,-2.977 2.418,-5.391 5.401,-5.391 v 0 h 11.416 c 2.984,0 5.402,2.414 5.402,5.391 v 0 c 0,2.979 -2.418,5.392 -5.402,5.392 v 0 z" /></clipPath><clipPath
       id="clipPath40"
       clipPathUnits="userSpaceOnUse"><path
         id="path38"
         d="m 184.276,107.618 c -0.033,0 -0.068,0 -0.102,-10e-4 v 0 c -2.282,-0.035 -4.407,-1.465 -5.208,-3.744 v 0 L 164.991,64.089 160.057,50.042 148.931,18.372 c -1.026,-2.923 0.509,-6.125 3.432,-7.153 v 0 l 0.004,-0.002 c 2.923,-1.027 6.123,0.51 7.15,3.432 v 0 l 23.619,67.238 c 0.399,1.135 2.005,1.135 2.403,0 v 0 l 23.62,-67.238 c 1.027,-2.922 4.227,-4.459 7.15,-3.432 v 0 l 0.004,0.002 c 2.923,1.028 4.458,4.23 3.432,7.153 v 0 l -11.126,31.67 -4.934,14.047 -13.975,39.784 c -0.801,2.279 -2.926,3.709 -5.208,3.744 v 0 c -0.035,10e-4 -0.069,10e-4 -0.103,10e-4 v 0 c -0.021,0 -0.041,0 -0.061,0 v 0 c -0.021,0 -0.041,0 -0.062,0" /></clipPath></defs><g
     transform="matrix(1.3333333,0,0,-1.3333333,0,158.112)"
     id="g10"><g
       id="g12"><g
         clip-path="url(#clipPath18)"
         id="g14"><g
           id="g20"><g
             id="g22"><path
               id="path32"
               style="fill:#fff;stroke:none"
               d="m 253.373,107.867 c -4.043,-0.378 -7.877,-2.142 -11.187,-4.522 v 0 c -6.473,-4.653 -9.551,-12.275 -9.334,-20.104 v 0 c 0.192,-6.901 3.169,-12.825 8.718,-16.964 v 0 c 6.806,-5.078 15.187,-7.189 23.09,-9.889 v 0 c 5.731,-1.959 13.01,-4.481 15.583,-10.531 v 0 c 2.494,-5.863 1.505,-14.194 -2.656,-19.036 v 0 c -2.37,-2.759 -6.127,-4.984 -8.876,-5.186 v 0 c -1.415,-0.103 -3.831,-0.225 -5.249,-0.225 v 0 c -5.284,0 -13.272,0.086 -18.556,0.086 v 0 c -2.537,0 -4.88,-0.64 -6.049,-3.159 v 0 c -1.72,-3.707 1.129,-7.694 5.058,-7.812 v 0 c 4.526,-0.134 10.414,-0.085 14.941,-0.085 v 0 c 2.282,0 5.93,-0.045 8.211,0 v 0 c 3.141,0.062 5.223,0.695 7.686,1.61 v 0 c 7.275,2.705 13.078,8.288 15.815,15.566 v 0 c 2.648,7.042 2.806,15.785 -0.163,22.765 v 0 c -2.682,6.306 -8.211,10.435 -14.265,13.272 v 0 c -3.7,1.734 -7.582,3.064 -11.485,4.257 v 0 c -6.469,1.985 -4.955,1.524 -1.929,0.598 v 0 c -3.716,1.166 -7.436,2.444 -10.893,4.227 v 0 c -2.349,1.214 -4.705,2.741 -6.17,4.999 v 0 c -2.854,4.397 -2.051,11.487 1.387,15.321 v 0 c 1.917,2.139 4.766,3.353 7.632,3.798 v 0 c 2.02,0.312 4.593,0.361 6.618,0.361 v 0 c 4.68,0 10.502,-0.159 15.259,-0.106 v 0 c 3.992,0.044 6.912,4.073 5.065,7.839 v 0 c -1.288,2.626 -3.819,3.093 -6.423,3.093 v 0 c -2.78,0 -7.507,0.057 -11.968,0.057 v 0 c -4.062,0 -7.903,-0.047 -9.86,-0.23 m 63.596,-6.333 V 16.766 c 0,-3.083 2.504,-5.583 5.593,-5.583 v 0 c 3.089,0 5.593,2.5 5.593,5.583 v 0 33.418 c 0,1.048 0.852,1.898 1.903,1.898 v 0 h 35.822 c 1.05,0 1.902,-0.85 1.902,-1.898 v 0 -33.418 c 0,-3.083 2.504,-5.583 5.593,-5.583 v 0 h 0.005 c 3.089,0 5.593,2.5 5.593,5.583 v 0 84.759 c 0,3.082 -2.504,5.581 -5.593,5.581 v 0 h -0.005 c -3.089,0 -5.593,-2.499 -5.593,-5.581 v 0 -36.521 c 0,-1.049 -0.852,-1.899 -1.903,-1.899 v 0 l -35.822,0.017 c -1.051,10e-4 -1.902,0.851 -1.902,1.899 v 0 36.513 c 0,3.079 -2.498,5.577 -5.583,5.581 v 0 c -0.004,0 -0.007,0 -0.01,0 v 0 c -3.088,0.001 -5.593,-2.499 -5.593,-5.581 m -225.904,5.572 c -3.089,0 -5.593,-2.499 -5.593,-5.581 v 0 -0.042 c 0,-3.083 2.504,-5.583 5.593,-5.583 v 0 h 16.706 c 1.124,0 2.034,-0.908 2.034,-2.028 v 0 -77.106 c 0,-3.083 2.503,-5.583 5.592,-5.583 v 0 c 3.089,0 5.594,2.5 5.594,5.583 v 0 77.106 c 0,1.12 0.909,2.028 2.032,2.028 v 0 h 16.66 c 3.088,0 5.592,2.5 5.592,5.583 v 0 0.042 c 0,3.082 -2.504,5.581 -5.592,5.581 v 0 z m -38.994,-0.043 c -2.987,0 -5.409,-2.416 -5.409,-5.398 v 0 c 0,-2.982 2.422,-5.399 5.409,-5.399 v 0 h 11.432 c 2.987,0 5.409,2.417 5.409,5.399 v 0 c 0,2.982 -2.422,5.398 -5.409,5.398 v 0 z M 34.56,107.028 31.638,106.84 c -0.568,-0.037 -1.967,-0.166 -2.525,-0.277 v 0 c -0.903,-0.181 -2.264,-0.48 -3.079,-0.784 v 0 c -4.767,-1.781 -8.847,-5.174 -11.461,-9.571 v 0 C 9.764,88.124 10.119,76.198 16.46,68.996 v 0 c 7.153,-8.125 19.056,-9.88 28.928,-12.603 v 0 c 4.425,-1.22 9.278,-2.635 12.846,-5.665 v 0 c 2.717,-2.307 4.001,-5.493 4.452,-8.962 v 0 C 63.217,37.68 62.98,33.29 61.065,29.568 v 0 c -1.1,-2.138 -2.748,-3.94 -4.754,-5.264 v 0 c -0.83,-0.548 -1.649,-1.073 -2.536,-1.493 v 0 C 52.703,22.47 52.277,22.144 49.389,21.84 v 0 c -0.19,-0.02 -0.989,-0.063 -1.22,-0.078 v 0 L 45.961,21.62 c -2.976,-0.192 -5.234,-2.756 -5.042,-5.728 v 0 c 0.192,-2.971 2.761,-5.224 5.738,-5.033 v 0 l 3.74,0.241 c 4.802,0.309 13.022,2.855 17.566,8.015 v 0 c 6.829,7.756 7.597,20.076 4.464,29.693 v 0 c -3.024,9.284 -11.233,14.111 -20.08,16.971 v 0 c -2.672,0.864 -5.38,1.626 -8.124,2.226 v 0 c -9.056,1.981 -11.09,2.549 -15.861,5.385 v 0 c -2.863,1.702 -4.889,4.137 -5.523,7.445 v 0 c -0.709,3.704 -0.256,7.924 2.071,10.996 v 0 c 0.369,0.489 0.78,0.939 1.222,1.351 v 0 c 1.188,1.107 3.431,2.059 5.133,2.551 v 0 c 1.1,0.318 4.481,0.542 4.481,0.542 v 0 c 3.342,0.215 5.757,3.485 4.686,6.907 v 0 c -0.736,2.356 -3.031,3.858 -5.485,3.858 v 0 c -0.129,0 -0.258,-0.004 -0.387,-0.012 M 264.655,67.91 c 10.589,-3.236 2.621,-0.793 -1.929,0.598 v 0 c 0.644,-0.202 1.287,-0.401 1.929,-0.598 M 18.661,21.498 c -2.983,0 -5.401,-2.413 -5.401,-5.392 v 0 c 0,-2.977 2.418,-5.391 5.401,-5.391 v 0 h 11.416 c 2.984,0 5.402,2.414 5.402,5.391 v 0 c 0,2.979 -2.418,5.392 -5.402,5.392 v 0 z" /></g></g></g></g><g
       id="g34"><g
         clip-path="url(#clipPath40)"
         id="g36"><g
           id="g42"><g
             id="g44"><path
               id="path54"
               style="fill:#fff;stroke:none"
               d="m 184.276,107.618 c -0.033,0 -0.068,0 -0.102,-10e-4 v 0 c -2.282,-0.035 -4.407,-1.465 -5.208,-3.744 v 0 L 164.991,64.089 160.057,50.042 148.931,18.372 c -1.026,-2.923 0.509,-6.125 3.432,-7.153 v 0 l 0.004,-0.002 c 2.923,-1.027 6.123,0.51 7.15,3.432 v 0 l 23.619,67.238 c 0.399,1.135 2.005,1.135 2.403,0 v 0 l 23.62,-67.238 c 1.027,-2.922 4.227,-4.459 7.15,-3.432 v 0 l 0.004,0.002 c 2.923,1.028 4.458,4.23 3.432,7.153 v 0 l -11.126,31.67 -4.934,14.047 -13.975,39.784 c -0.801,2.279 -2.926,3.709 -5.208,3.744 v 0 c -0.035,10e-4 -0.069,10e-4 -0.103,10e-4 v 0 c -0.021,0 -0.041,0 -0.061,0 v 0 c -0.021,0 -0.041,0 -0.062,0" /></g></g></g></g></g></svg>